<svg id="svg" version="1.1" xmlns="http://www.w3.org/2000/svg" xmlns:xlink="http://www.w3.org/1999/xlink" width="400" height="400" viewBox="0, 0, 400,400"><g id="svgg"><path id="path0" d="M58.798 54.351 C 46.854 57.576,39.215 68.140,39.203 81.451 C 39.199 85.390,38.718 84.982,46.200 87.379 C 56.903 90.808,72.343 96.238,84.600 100.884 C 86.360 101.551,88.610 102.390,89.600 102.748 C 92.362 103.748,184.362 103.354,186.200 102.334 C 191.030 99.654,191.200 98.838,191.200 78.296 C 191.200 57.648,190.963 56.508,186.228 54.357 C 183.764 53.238,62.941 53.232,58.798 54.351 M214.172 54.357 C 209.381 56.533,209.107 57.941,209.270 79.600 C 209.412 98.654,209.346 98.124,211.864 100.448 C 214.882 103.234,210.281 102.978,261.382 103.200 C 310.313 103.413,308.563 103.336,309.691 105.309 C 310.092 106.011,310.242 116.133,310.400 152.966 L 310.600 199.732 313.600 200.461 C 320.781 202.208,328.349 203.731,334.000 204.567 C 336.530 204.942,339.680 205.418,341.000 205.626 C 342.320 205.834,345.740 206.185,348.600 206.406 C 361.776 207.426,360.327 207.432,360.590 206.357 C 361.295 203.481,360.599 74.197,359.868 72.200 C 356.453 62.868,349.992 56.676,341.291 54.397 C 336.703 53.195,216.812 53.158,214.172 54.357 " stroke="none" fill="#ef8826" fill-rule="evenodd"></path><path id="path1" d="M39.217 183.300 C 39.235 285.367,39.236 285.475,40.853 285.359 C 41.377 285.321,52.088 278.574,72.289 265.555 C 76.519 262.830,82.594 258.918,85.790 256.863 L 91.602 253.126 90.801 252.001 C 89.522 250.205,89.543 107.354,90.823 105.255 C 91.274 104.515,91.588 103.863,91.522 103.806 C 91.357 103.665,72.061 96.381,70.800 95.984 C 70.250 95.810,66.920 94.654,63.400 93.414 C 54.708 90.353,40.285 85.600,39.687 85.600 C 39.306 85.600,39.204 106.803,39.217 183.300 M143.692 165.820 C 129.046 169.763,130.824 190.692,145.876 191.518 C 152.757 191.896,157.742 188.177,159.446 181.393 C 161.759 172.184,152.832 163.359,143.692 165.820 M196.908 165.816 C 186.614 168.589,183.550 181.166,191.420 188.345 C 197.795 194.161,208.270 192.048,211.968 184.200 C 216.602 174.368,207.303 163.016,196.908 165.816 M250.410 165.841 C 235.338 169.891,238.124 191.601,253.715 191.600 C 268.862 191.598,271.221 169.641,256.485 165.822 C 253.620 165.080,253.239 165.081,250.410 165.841 " stroke="none" fill="#2372c4" fill-rule="evenodd"></path><path id="path2" d="M58.600 39.492 C 57.940 39.590,57.220 39.815,57.000 39.991 C 56.780 40.167,55.655 40.437,54.500 40.593 C 53.346 40.748,52.300 41.038,52.177 41.237 C 52.054 41.437,51.513 41.600,50.976 41.600 C 50.439 41.600,50.000 41.780,50.000 42.000 C 50.000 42.220,49.610 42.400,49.134 42.400 C 48.164 42.400,42.400 45.848,42.400 46.428 C 42.400 46.633,42.138 46.800,41.818 46.800 C 41.498 46.800,40.786 47.250,40.236 47.800 C 39.686 48.350,39.108 48.800,38.952 48.800 C 38.166 48.800,33.634 53.781,32.309 56.100 C 31.838 56.925,31.306 57.600,31.126 57.600 C 30.947 57.600,30.800 57.870,30.800 58.200 C 30.800 58.530,30.623 58.800,30.408 58.800 C 30.192 58.800,29.902 59.250,29.764 59.800 C 29.626 60.350,29.353 60.800,29.157 60.800 C 28.960 60.800,28.799 61.025,28.798 61.300 C 28.796 61.575,28.518 62.332,28.179 62.982 C 27.840 63.632,27.456 64.937,27.327 65.882 C 27.197 66.827,26.936 67.600,26.746 67.600 C 26.556 67.600,26.400 68.052,26.400 68.605 C 26.400 69.158,26.225 69.923,26.010 70.305 C 24.678 72.680,24.648 75.080,24.648 178.600 C 24.648 282.120,24.678 284.520,26.010 286.895 C 26.225 287.277,26.400 288.031,26.400 288.571 C 26.400 289.111,26.559 289.651,26.754 289.771 C 26.948 289.892,27.229 290.802,27.378 291.795 C 27.527 292.788,27.818 293.600,28.025 293.600 C 28.231 293.600,28.400 293.937,28.400 294.350 C 28.400 295.332,30.350 298.806,31.052 299.075 C 31.354 299.191,31.600 299.523,31.600 299.814 C 31.600 300.105,31.827 300.581,32.105 300.871 C 32.383 301.162,32.936 301.909,33.335 302.531 C 34.626 304.547,35.944 305.958,39.358 308.976 C 39.996 309.539,40.678 310.000,40.876 310.000 C 41.073 310.000,41.720 310.450,42.313 311.000 C 42.906 311.550,43.978 312.278,44.696 312.619 C 45.413 312.959,46.001 313.364,46.001 313.519 C 46.002 313.673,46.857 314.128,47.901 314.529 C 48.946 314.929,50.137 315.439,50.549 315.662 C 50.961 315.885,52.266 316.168,53.449 316.290 C 54.632 316.412,55.600 316.649,55.600 316.817 C 55.600 316.984,56.680 317.247,58.001 317.400 C 59.321 317.553,60.502 317.841,60.624 318.039 C 60.942 318.553,185.494 318.518,185.667 318.004 C 185.740 317.786,186.925 317.490,188.300 317.347 C 189.675 317.203,190.800 316.932,190.800 316.743 C 190.800 316.554,191.223 316.400,191.740 316.400 C 192.585 316.400,195.359 314.691,196.729 313.327 C 197.526 312.532,199.200 312.830,199.200 313.766 C 199.200 314.622,200.910 316.388,229.146 344.696 C 259.404 375.033,258.655 374.317,260.519 374.670 C 261.223 374.803,262.040 375.101,262.332 375.332 C 263.059 375.905,270.748 375.926,271.116 375.356 C 271.272 375.114,272.075 374.791,272.900 374.640 C 273.725 374.488,274.400 374.220,274.400 374.045 C 274.400 373.869,275.031 373.386,275.802 372.971 C 276.574 372.555,277.318 371.859,277.456 371.423 C 277.595 370.987,278.134 370.295,278.654 369.886 C 279.184 369.469,279.600 368.715,279.600 368.171 C 279.600 367.637,279.762 367.200,279.961 367.200 C 280.159 367.200,280.447 366.120,280.600 364.799 C 280.753 363.479,281.041 362.298,281.239 362.176 C 281.446 362.048,281.600 352.678,281.600 340.176 L 281.600 318.400 310.576 318.400 C 327.466 318.400,339.646 318.249,339.777 318.037 C 339.900 317.838,340.939 317.546,342.084 317.388 C 343.230 317.231,344.445 316.953,344.784 316.771 C 345.123 316.590,346.251 316.331,347.291 316.197 C 348.331 316.063,349.286 315.784,349.414 315.577 C 349.542 315.370,349.905 315.200,350.221 315.200 C 351.037 315.200,354.000 313.871,354.000 313.506 C 354.000 313.338,354.233 313.200,354.519 313.200 C 355.069 313.200,356.295 312.351,357.771 310.948 C 358.264 310.479,359.041 309.977,359.497 309.833 C 359.953 309.688,360.427 309.306,360.550 308.985 C 360.674 308.663,360.977 308.400,361.223 308.400 C 361.884 308.400,367.200 302.646,367.200 301.931 C 367.200 301.728,367.650 301.145,368.200 300.635 C 368.750 300.125,369.200 299.504,369.200 299.254 C 369.200 299.004,369.377 298.800,369.592 298.800 C 369.808 298.800,370.098 298.350,370.236 297.800 C 370.374 297.250,370.647 296.800,370.843 296.800 C 371.040 296.800,371.200 296.602,371.200 296.360 C 371.200 295.944,372.077 293.752,372.800 292.359 C 372.983 292.006,373.261 290.836,373.417 289.759 C 373.573 288.681,373.858 287.602,374.050 287.359 C 374.243 287.117,374.516 285.806,374.658 284.447 C 374.800 283.087,375.070 281.880,375.258 281.764 C 375.705 281.488,375.705 75.712,375.258 75.436 C 375.070 75.320,374.800 74.113,374.658 72.753 C 374.516 71.394,374.240 70.083,374.045 69.841 C 373.849 69.598,373.563 68.455,373.407 67.300 C 373.252 66.146,372.962 65.100,372.763 64.977 C 372.563 64.854,372.400 64.403,372.400 63.976 C 372.400 63.549,372.234 63.200,372.032 63.200 C 371.829 63.200,371.545 62.660,371.400 62.000 C 371.255 61.340,370.990 60.800,370.812 60.800 C 370.633 60.800,370.382 60.395,370.254 59.900 C 370.126 59.405,369.566 58.477,369.010 57.838 C 368.455 57.199,368.000 56.516,368.000 56.321 C 368.000 56.126,367.828 55.749,367.618 55.483 C 364.850 51.985,360.825 48.000,360.060 48.000 C 359.854 48.000,359.582 47.730,359.455 47.400 C 359.329 47.070,358.993 46.800,358.708 46.800 C 358.424 46.800,357.707 46.350,357.113 45.800 C 356.520 45.250,355.847 44.800,355.617 44.800 C 355.388 44.800,355.200 44.623,355.200 44.408 C 355.200 44.192,354.750 43.902,354.200 43.764 C 353.650 43.626,353.200 43.361,353.200 43.175 C 353.200 42.989,352.525 42.712,351.700 42.560 C 350.875 42.409,350.110 42.175,350.000 42.040 C 349.669 41.635,347.117 40.849,345.200 40.561 C 344.210 40.412,343.147 40.090,342.839 39.845 C 341.976 39.161,212.225 39.215,211.540 39.900 C 211.265 40.175,210.608 40.400,210.080 40.400 C 208.915 40.400,206.321 41.560,205.880 42.278 C 205.704 42.565,205.376 42.800,205.152 42.800 C 204.927 42.800,204.492 43.025,204.185 43.300 C 202.983 44.378,202.424 44.800,202.198 44.800 C 202.068 44.800,201.553 45.275,201.054 45.856 L 200.146 46.911 198.512 45.356 C 196.532 43.470,195.152 42.400,194.702 42.400 C 194.517 42.400,193.988 42.047,193.525 41.616 C 193.062 41.184,191.854 40.709,190.841 40.560 C 189.829 40.411,188.872 40.089,188.715 39.844 C 188.434 39.408,61.471 39.063,58.600 39.492 M185.301 53.771 C 191.097 55.839,191.202 56.276,191.191 78.296 C 191.181 98.909,191.222 98.604,188.152 101.137 C 185.604 103.238,186.614 103.195,139.200 103.200 C 91.151 103.205,92.099 103.163,90.781 105.325 C 89.661 107.160,89.542 250.129,90.659 251.833 C 92.134 254.085,90.230 254.000,139.262 254.000 C 188.708 254.000,185.954 253.870,188.537 256.321 C 191.262 258.908,191.200 258.379,191.200 279.000 C 191.200 296.751,191.163 297.705,190.412 299.177 C 189.427 301.107,187.061 303.095,185.125 303.618 C 182.614 304.297,60.151 303.939,58.400 303.247 C 47.771 299.050,41.918 292.824,39.813 283.475 C 38.868 279.274,38.883 77.155,39.829 73.458 C 42.319 63.729,50.631 55.732,60.234 53.825 C 64.287 53.019,183.052 52.968,185.301 53.771 M339.265 53.765 C 349.121 55.661,356.429 62.098,359.923 71.961 L 361.000 75.000 361.000 178.600 C 361.000 278.534,360.974 282.285,360.255 284.600 C 357.649 292.994,351.259 299.589,342.510 302.914 C 340.202 303.792,340.172 303.792,304.400 303.895 C 284.710 303.951,268.195 304.091,267.700 304.206 L 266.800 304.415 266.800 333.008 C 266.800 348.733,266.663 361.600,266.496 361.600 C 265.704 361.600,210.551 305.444,209.800 303.874 C 209.039 302.281,208.994 301.246,208.886 282.452 C 208.758 260.507,208.829 259.761,211.307 256.939 C 214.066 253.797,210.295 254.019,261.120 254.009 C 310.316 253.999,307.849 254.110,309.341 251.835 C 310.322 250.336,310.360 106.693,309.379 105.292 C 308.008 103.334,309.820 103.412,260.971 103.200 L 214.941 103.000 213.274 101.897 C 212.357 101.290,211.110 100.043,210.503 99.126 L 209.400 97.459 209.400 78.429 C 209.400 55.806,209.400 55.804,215.099 53.771 C 217.389 52.953,335.018 52.948,339.265 53.765 M151.366 166.022 C 165.506 171.312,161.051 192.750,145.986 191.910 C 131.288 191.091,128.510 170.731,142.432 165.857 C 144.973 164.968,148.733 165.037,151.366 166.022 M205.914 166.545 C 218.248 172.859,214.569 191.144,200.810 191.910 C 185.357 192.772,181.352 171.185,195.953 165.729 C 198.352 164.832,203.371 165.244,205.914 166.545 M258.282 166.065 C 263.270 167.931,266.800 173.126,266.800 178.600 C 266.800 191.467,250.184 196.910,242.639 186.514 C 234.872 175.813,245.879 161.424,258.282 166.065 " stroke="none" fill="#fbfbfb" fill-rule="evenodd"></path><path id="path3" d="M93.131 53.500 C 109.924 53.558,137.284 53.558,153.931 53.500 C 170.579 53.442,156.840 53.395,123.400 53.395 C 89.960 53.395,76.339 53.442,93.131 53.500 M246.500 53.500 C 263.165 53.558,290.435 53.558,307.100 53.500 C 323.765 53.442,310.130 53.395,276.800 53.395 C 243.470 53.395,229.835 53.442,246.500 53.500 M46.575 61.300 L 45.400 62.600 46.700 61.425 C 47.912 60.330,48.184 60.000,47.875 60.000 C 47.806 60.000,47.221 60.585,46.575 61.300 M360.979 93.200 C 360.979 100.570,361.033 103.585,361.099 99.900 C 361.165 96.215,361.165 90.185,361.099 86.500 C 361.033 82.815,360.979 85.830,360.979 93.200 M188.575 100.500 L 187.400 101.800 188.700 100.625 C 189.912 99.530,190.184 99.200,189.875 99.200 C 189.806 99.200,189.221 99.785,188.575 100.500 M310.066 178.714 C 310.005 244.960,309.946 250.910,309.341 251.835 C 307.849 254.110,310.316 253.999,261.120 254.009 C 210.295 254.019,214.066 253.797,211.307 256.939 C 208.829 259.761,208.758 260.507,208.886 282.452 C 208.994 301.246,209.039 302.281,209.800 303.874 C 210.551 305.444,265.704 361.600,266.496 361.600 C 266.663 361.600,266.800 348.733,266.800 333.008 L 266.800 304.415 267.700 304.206 C 268.195 304.091,284.710 303.951,304.400 303.895 C 340.172 303.792,340.202 303.792,342.510 302.914 C 351.095 299.651,357.276 293.388,360.149 285.043 L 360.990 282.600 361.031 195.000 L 361.073 107.400 360.757 177.000 C 360.288 280.131,360.260 282.774,359.648 284.400 C 356.100 293.821,351.673 298.444,342.652 302.146 C 340.625 302.978,340.160 302.990,303.816 303.106 C 275.418 303.197,266.962 303.335,266.722 303.712 C 266.552 303.980,266.409 316.845,266.406 332.300 C 266.403 347.755,266.344 360.400,266.276 360.400 C 265.995 360.400,211.927 306.120,211.291 305.200 C 209.667 302.849,209.612 302.088,209.606 281.646 C 209.600 260.279,209.640 259.826,211.750 257.529 C 214.484 254.551,210.031 254.803,260.486 254.777 C 309.897 254.753,307.669 254.862,309.671 252.375 L 310.819 250.950 310.475 178.775 L 310.132 106.600 310.066 178.714 M255.600 165.600 C 256.968 166.038,258.019 166.038,257.000 165.600 C 256.560 165.411,255.840 165.262,255.400 165.268 C 254.757 165.277,254.796 165.343,255.600 165.600 M137.485 168.841 L 135.800 170.481 137.700 168.956 C 138.745 168.117,139.600 167.379,139.600 167.315 C 139.600 166.939,138.974 167.390,137.485 168.841 M155.800 169.200 C 156.659 170.080,157.452 170.800,157.562 170.800 C 157.672 170.800,157.059 170.080,156.200 169.200 C 155.341 168.320,154.548 167.600,154.438 167.600 C 154.328 167.600,154.941 168.320,155.800 169.200 M262.473 169.003 C 263.284 169.881,264.406 171.410,264.968 172.400 C 265.531 173.390,265.993 174.010,265.995 173.778 C 266.004 173.038,263.755 169.842,262.354 168.603 C 261.020 167.422,261.021 167.428,262.473 169.003 M210.531 170.672 C 210.932 171.144,211.693 172.581,212.221 173.865 C 212.749 175.149,213.184 175.930,213.187 175.600 C 213.196 174.624,211.390 171.049,210.564 170.407 C 209.819 169.828,209.818 169.835,210.531 170.672 M241.265 173.017 C 240.595 174.488,240.723 174.802,241.447 173.465 C 241.786 172.840,241.988 172.254,241.896 172.163 C 241.805 172.071,241.521 172.456,241.265 173.017 M159.059 174.200 C 159.585 176.534,160.009 177.501,159.761 175.800 C 159.632 174.920,159.361 173.930,159.158 173.600 C 158.911 173.198,158.878 173.397,159.059 174.200 M266.537 178.600 C 266.539 180.360,266.609 181.030,266.693 180.089 C 266.778 179.149,266.777 177.709,266.691 176.889 C 266.605 176.070,266.536 176.840,266.537 178.600 M133.324 178.600 C 133.326 179.920,133.401 180.412,133.490 179.693 C 133.579 178.974,133.577 177.894,133.486 177.293 C 133.395 176.692,133.322 177.280,133.324 178.600 M240.124 178.600 C 240.126 179.920,240.201 180.412,240.290 179.693 C 240.379 178.974,240.377 177.894,240.286 177.293 C 240.195 176.692,240.122 177.280,240.124 178.600 M213.314 178.600 C 213.317 179.700,213.395 180.103,213.487 179.495 C 213.579 178.886,213.577 177.986,213.482 177.495 C 213.387 177.003,213.311 177.500,213.314 178.600 M159.313 181.841 C 159.067 182.918,158.929 183.862,159.006 183.940 C 159.229 184.162,160.063 180.790,159.904 180.312 C 159.826 180.077,159.560 180.765,159.313 181.841 M265.076 184.609 C 264.097 186.662,261.451 189.365,259.605 190.198 C 258.718 190.598,258.066 191.000,258.157 191.090 C 258.553 191.486,261.575 189.517,263.084 187.879 C 264.687 186.140,266.220 183.686,265.901 183.368 C 265.814 183.281,265.443 183.840,265.076 184.609 M242.730 186.700 C 243.161 187.305,243.928 188.160,244.434 188.600 C 244.940 189.040,244.651 188.545,243.792 187.500 C 242.073 185.408,241.503 184.979,242.730 186.700 M155.200 188.482 C 153.990 189.611,153.360 190.338,153.800 190.099 C 154.569 189.680,157.953 186.384,157.581 186.415 C 157.482 186.424,156.410 187.354,155.200 188.482 M190.600 187.945 C 191.480 188.890,192.560 189.853,193.000 190.086 C 193.440 190.318,193.710 190.427,193.600 190.327 C 189.703 186.791,189.020 186.248,190.600 187.945 M136.000 186.925 C 136.000 186.994,136.585 187.579,137.300 188.225 L 138.600 189.400 137.425 188.100 C 136.330 186.888,136.000 186.616,136.000 186.925 M247.809 190.761 C 248.024 190.971,248.740 191.271,249.400 191.428 C 250.948 191.795,250.600 191.454,248.809 190.849 C 248.044 190.590,247.594 190.550,247.809 190.761 M145.300 191.891 C 146.125 191.978,147.475 191.978,148.300 191.891 C 149.125 191.805,148.450 191.734,146.800 191.734 C 145.150 191.734,144.475 191.805,145.300 191.891 M198.500 191.891 C 199.325 191.978,200.675 191.978,201.500 191.891 C 202.325 191.805,201.650 191.734,200.000 191.734 C 198.350 191.734,197.675 191.805,198.500 191.891 M252.100 191.891 C 252.925 191.978,254.275 191.978,255.100 191.891 C 255.925 191.805,255.250 191.734,253.600 191.734 C 251.950 191.734,251.275 191.805,252.100 191.891 M85.600 256.966 C 82.410 259.045,78.450 261.605,76.800 262.654 C 64.028 270.777,54.342 277.198,57.600 275.383 C 58.291 274.998,67.875 268.887,72.600 265.818 C 91.285 253.684,91.595 253.498,92.269 254.057 C 92.808 254.505,101.029 254.635,139.161 254.800 C 188.639 255.014,186.139 254.904,188.205 256.955 C 190.715 259.447,190.600 258.385,190.600 279.000 L 190.600 297.800 189.538 299.338 C 188.953 300.183,187.783 301.353,186.938 301.938 L 185.400 303.000 122.800 303.000 C 56.725 303.000,59.012 303.057,55.600 301.315 C 55.050 301.035,54.390 300.804,54.133 300.802 C 53.877 300.801,53.607 300.665,53.533 300.500 C 53.460 300.335,52.732 299.861,51.916 299.446 C 47.781 297.344,39.501 286.366,41.538 285.687 C 41.738 285.621,43.049 284.801,44.451 283.865 C 45.853 282.929,49.118 280.845,51.706 279.234 C 54.295 277.622,56.527 276.118,56.668 275.890 C 56.982 275.381,57.471 275.087,48.400 280.875 C 44.330 283.472,40.829 285.655,40.621 285.725 C 39.737 286.023,42.866 291.663,45.802 295.064 C 48.840 298.583,52.331 300.851,58.400 303.247 C 60.151 303.939,182.614 304.297,185.125 303.618 C 187.061 303.095,189.427 301.107,190.412 299.177 C 191.163 297.705,191.200 296.751,191.200 278.996 C 191.200 258.666,191.262 259.258,188.854 256.664 C 186.401 254.022,190.094 254.223,139.400 253.978 C 114.100 253.856,92.950 253.628,92.400 253.471 C 91.572 253.234,90.405 253.834,85.600 256.966 " stroke="none" fill="#e5817d" fill-rule="evenodd"></path><path id="path4" d="M310.800 225.509 L 310.800 251.018 309.582 252.495 C 307.625 254.869,309.206 254.795,260.286 254.798 C 210.049 254.800,214.485 254.551,211.750 257.529 C 209.640 259.826,209.600 260.279,209.606 281.646 C 209.612 302.088,209.667 302.849,211.291 305.200 C 211.927 306.120,265.995 360.400,266.276 360.400 C 266.344 360.400,266.403 347.755,266.406 332.300 C 266.409 316.845,266.552 303.980,266.722 303.712 C 266.962 303.335,275.418 303.197,303.816 303.106 C 340.160 302.990,340.625 302.978,342.652 302.146 C 348.178 299.878,351.701 297.376,354.790 293.524 C 356.929 290.859,357.805 289.216,359.660 284.400 C 360.096 283.269,360.221 275.735,360.311 245.166 L 360.423 207.333 353.912 206.831 C 350.330 206.556,345.960 206.160,344.200 205.951 C 342.440 205.743,339.650 205.412,338.000 205.215 C 333.916 204.728,329.427 203.916,320.132 201.983 C 319.214 201.792,316.984 201.268,315.177 200.818 C 313.369 200.368,311.645 200.000,311.345 200.000 C 310.891 200.000,310.800 204.244,310.800 225.509 M84.188 258.310 C 71.494 266.565,58.290 275.056,51.600 279.268 C 49.070 280.860,45.853 282.929,44.451 283.865 C 43.049 284.801,41.738 285.621,41.538 285.687 C 39.501 286.366,47.781 297.344,51.916 299.446 C 52.732 299.861,53.460 300.335,53.533 300.500 C 53.607 300.665,53.877 300.801,54.133 300.802 C 54.390 300.804,55.050 301.035,55.600 301.315 C 59.012 303.057,56.725 303.000,122.800 303.000 L 185.400 303.000 186.938 301.938 C 187.783 301.353,188.953 300.183,189.538 299.338 L 190.600 297.800 190.600 279.000 C 190.600 258.385,190.715 259.447,188.205 256.955 C 186.139 254.904,188.642 255.014,139.120 254.800 C 102.846 254.643,92.732 254.492,92.340 254.100 C 91.640 253.400,92.119 253.152,84.188 258.310 " stroke="none" fill="#bc402f" fill-rule="evenodd"></path></g></svg>