<svg id="svg" xmlns="http://www.w3.org/2000/svg" xmlns:xlink="http://www.w3.org/1999/xlink" width="400" height="400" viewBox="0, 0, 400,400"><g id="svgg"><path id="path0" d="M28.125 11.563 C 27.158 11.873,25.400 12.427,24.219 12.794 C 15.720 15.431,7.173 23.888,4.380 32.422 C 2.502 38.159,2.344 39.087,2.344 44.333 C 2.344 50.113,2.260 49.925,5.273 50.919 C 22.661 56.657,31.568 59.646,35.742 61.144 C 38.535 62.146,41.523 63.203,42.383 63.492 C 43.242 63.781,45.439 64.576,47.266 65.258 C 53.895 67.736,56.482 68.711,58.398 69.457 C 59.473 69.875,61.758 70.722,63.477 71.339 L 66.602 72.461 123.828 72.266 L 181.055 72.070 182.704 71.189 C 188.792 67.936,188.716 68.326,188.586 40.903 L 188.477 17.753 187.011 15.757 C 185.465 13.651,184.355 12.756,181.891 11.628 C 179.792 10.667,31.114 10.604,28.125 11.563 M217.481 11.685 C 210.752 14.827,210.585 15.550,210.568 41.602 C 210.552 67.317,210.658 67.803,216.992 71.226 L 218.555 72.070 274.609 72.266 C 335.075 72.476,331.765 72.348,333.398 74.538 C 334.513 76.033,334.676 84.228,334.732 141.602 C 334.757 167.813,334.907 189.446,335.065 189.677 C 335.412 190.184,336.451 190.620,338.281 191.027 C 339.033 191.194,341.230 191.699,343.164 192.148 C 348.679 193.430,359.666 195.619,362.891 196.078 C 373.591 197.604,378.207 198.118,386.455 198.704 C 394.530 199.277,395.810 199.290,396.120 198.803 C 396.334 198.467,396.436 165.705,396.374 116.992 L 396.270 35.742 395.420 33.493 C 391.760 23.814,385.359 17.002,376.492 13.346 C 374.842 12.666,373.149 12.109,372.731 12.109 C 372.313 12.109,371.339 11.846,370.568 11.523 C 368.242 10.551,219.572 10.708,217.481 11.685 " stroke="none" fill="#f18c25" fill-rule="evenodd"></path><path id="path1" d="M2.344 169.478 C 2.344 247.312,2.479 288.887,2.736 290.243 C 3.833 296.026,3.843 296.033,7.542 293.652 C 8.961 292.739,11.228 291.300,12.580 290.453 C 13.933 289.606,16.445 288.013,18.164 286.913 C 23.106 283.748,33.706 276.933,36.813 274.924 C 38.372 273.915,40.791 272.370,42.188 271.490 C 43.584 270.610,47.715 267.955,51.367 265.591 C 55.020 263.227,59.678 260.219,61.719 258.907 C 66.475 255.849,66.605 255.688,65.617 254.089 C 64.391 252.105,64.399 76.452,65.625 74.893 C 66.724 73.496,66.612 73.089,64.941 72.423 C 64.136 72.103,63.125 71.676,62.695 71.475 C 61.666 70.994,44.394 64.492,42.383 63.829 C 41.523 63.545,39.063 62.681,36.914 61.909 C 34.766 61.137,31.689 60.072,30.078 59.541 C 28.467 59.011,26.797 58.417,26.367 58.222 C 25.938 58.027,21.982 56.689,17.578 55.248 C 13.174 53.808,8.327 52.213,6.807 51.705 C 5.287 51.197,3.661 50.781,3.193 50.781 L 2.344 50.781 2.344 169.478 M130.664 149.015 C 116.274 152.182,113.832 171.799,126.977 178.638 C 137.474 184.100,150.000 176.387,150.000 164.460 C 150.000 154.061,140.871 146.769,130.664 149.015 M196.666 148.858 C 181.350 151.426,179.238 173.854,193.799 179.318 C 210.190 185.470,223.164 164.512,210.264 152.722 C 206.437 149.225,202.001 147.964,196.666 148.858 M261.523 148.978 C 252.770 150.708,247.466 159.724,249.831 168.851 C 253.167 181.727,270.936 184.591,278.175 173.419 C 286.111 161.171,275.871 146.141,261.523 148.978 " stroke="none" fill="#1e73c5" fill-rule="evenodd"></path><path id="path2" d="M0.000 200.000 L 0.000 400.000 200.000 400.000 L 400.000 400.000 400.000 200.000 L 400.000 0.000 200.000 0.000 L 0.000 0.000 0.000 200.000 M182.487 11.672 C 184.488 12.540,186.853 14.811,188.027 16.992 C 189.293 19.347,189.354 63.790,188.093 66.016 C 186.943 68.046,184.774 70.268,183.008 71.225 L 181.445 72.070 125.195 72.266 C 64.009 72.478,67.360 72.339,65.723 74.737 L 64.844 76.025 64.844 164.431 C 64.844 251.789,64.853 252.852,65.615 254.086 C 67.169 256.600,63.154 256.427,124.805 256.641 L 181.055 256.836 182.663 257.696 C 185.134 259.018,186.453 260.290,187.713 262.565 L 188.867 264.648 188.867 287.500 C 188.867 310.217,188.862 310.361,188.018 311.939 C 186.904 314.019,184.646 316.181,182.438 317.280 L 180.664 318.164 105.859 318.164 C 44.624 318.164,30.630 318.069,28.711 317.639 C 14.956 314.556,5.834 305.214,2.952 291.258 C 1.903 286.182,2.040 39.985,3.093 35.866 C 5.918 24.821,14.278 15.709,24.541 12.491 C 25.975 12.042,27.588 11.527,28.125 11.347 C 30.466 10.564,180.663 10.880,182.487 11.672 M372.301 11.614 C 384.103 14.567,394.293 25.394,396.480 37.305 C 396.790 38.989,396.878 75.194,396.793 166.016 L 396.675 292.383 395.628 295.179 C 391.856 305.252,385.681 311.917,376.563 315.757 C 370.648 318.248,373.529 318.102,325.586 318.339 L 281.836 318.555 281.736 353.236 C 281.646 384.419,281.574 387.941,281.019 388.154 C 280.112 388.502,212.860 320.899,211.629 318.402 L 210.742 316.602 210.742 290.625 L 210.742 264.648 211.708 262.757 C 212.790 260.640,214.451 259.029,216.905 257.717 L 218.555 256.836 274.627 256.641 C 336.702 256.424,331.768 256.644,333.491 254.016 C 334.561 252.383,334.562 76.526,333.492 74.893 C 331.781 72.281,336.088 72.469,275.977 72.383 C 211.325 72.291,216.958 72.639,213.327 68.514 C 210.207 64.969,210.156 64.541,210.156 41.684 C 210.156 16.379,210.556 14.627,216.992 11.701 C 218.919 10.825,368.812 10.741,372.301 11.614 M139.159 148.763 C 155.450 154.137,153.938 177.181,137.066 180.670 C 125.192 183.126,114.709 171.092,118.585 159.453 C 121.466 150.802,130.738 145.985,139.159 148.763 M204.305 148.671 C 214.632 151.738,219.289 164.182,213.498 173.236 C 206.442 184.266,190.689 183.348,184.867 171.566 C 178.633 158.953,190.774 144.653,204.305 148.671 M269.759 148.659 C 283.534 152.663,285.477 172.152,272.785 179.003 C 263.934 183.780,252.923 179.484,249.513 169.922 C 245.061 157.438,256.962 144.939,269.759 148.659 " stroke="none" fill="#fbfbfb" fill-rule="evenodd"></path><path id="path3" d="M335.402 190.830 C 335.267 191.182,335.156 205.299,335.155 222.200 C 335.153 256.633,335.365 254.078,332.321 256.400 L 330.981 257.422 275.562 257.422 C 224.587 257.422,220.001 257.475,218.372 258.079 C 215.791 259.038,213.783 260.755,212.581 263.034 L 211.523 265.039 211.523 290.625 L 211.523 316.211 212.619 318.290 C 213.612 320.176,279.732 387.109,280.602 387.109 C 280.744 387.109,280.862 371.685,280.865 352.832 C 280.869 331.920,281.016 318.326,281.242 317.969 C 281.566 317.455,287.141 317.359,326.255 317.187 C 375.114 316.972,370.507 317.181,376.367 314.911 C 385.086 311.534,392.347 303.212,395.171 293.359 C 395.859 290.957,395.904 288.352,396.004 245.098 L 396.109 199.375 386.434 198.690 C 377.767 198.076,373.803 197.637,363.086 196.107 C 359.692 195.622,348.794 193.456,343.164 192.148 C 341.230 191.699,339.033 191.194,338.281 191.027 C 337.529 190.860,336.629 190.603,336.281 190.456 C 335.875 190.285,335.559 190.419,335.402 190.830 M61.886 259.465 C 59.508 261.027,56.607 262.908,55.441 263.645 C 54.275 264.382,51.387 266.245,49.023 267.785 C 46.660 269.324,42.441 272.045,39.648 273.830 C 36.855 275.615,33.076 278.042,31.250 279.224 C 26.112 282.547,24.553 283.544,16.797 288.464 C 12.822 290.986,9.131 293.355,8.594 293.729 C 8.057 294.104,7.046 294.706,6.348 295.067 C 4.770 295.882,4.770 296.231,6.350 299.293 C 10.863 308.043,16.548 312.813,26.563 316.254 C 28.640 316.968,31.218 316.992,105.128 316.992 L 181.546 316.992 183.733 315.486 C 185.403 314.336,186.176 313.458,187.003 311.775 L 188.086 309.570 188.206 288.477 C 188.345 263.850,188.336 263.764,185.171 260.599 C 181.961 257.389,186.957 257.649,124.023 257.418 C 93.086 257.304,67.422 257.080,66.992 256.918 C 66.397 256.695,65.181 257.301,61.886 259.465 " stroke="none" fill="#da4743" fill-rule="evenodd"></path><path id="path4" d="M188.855 41.602 C 188.855 53.848,188.904 58.801,188.965 52.609 C 189.025 46.417,189.025 36.397,188.965 30.343 C 188.904 24.289,188.855 29.355,188.855 41.602 M210.338 41.602 C 210.338 52.988,210.388 57.590,210.449 51.828 C 210.510 46.066,210.510 36.749,210.449 31.125 C 210.388 25.500,210.338 30.215,210.338 41.602 M396.526 112.109 C 396.248 253.765,395.948 290.810,395.059 293.750 C 392.107 303.503,384.975 311.576,376.367 314.911 C 370.507 317.181,375.114 316.972,326.255 317.187 C 287.141 317.359,281.566 317.455,281.242 317.969 C 281.016 318.326,280.869 331.920,280.865 352.832 C 280.862 371.685,280.744 387.109,280.602 387.109 C 279.732 387.109,213.612 320.176,212.619 318.290 L 211.523 316.211 211.523 290.625 L 211.523 265.039 212.581 263.034 C 213.783 260.755,215.791 259.038,218.372 258.079 C 220.001 257.475,224.590 257.422,275.608 257.422 L 331.072 257.422 332.536 256.215 C 333.342 255.551,334.258 254.511,334.572 253.903 C 335.197 252.694,335.212 244.441,334.773 140.625 L 334.564 91.211 334.461 141.406 C 334.222 256.562,334.254 252.850,333.491 254.016 C 331.768 256.644,336.702 256.424,274.627 256.641 L 218.555 256.836 216.905 257.717 C 214.451 259.029,212.790 260.640,211.708 262.757 L 210.742 264.648 210.742 290.625 L 210.742 316.602 211.629 318.402 C 212.860 320.899,280.112 388.502,281.019 388.154 C 281.574 387.941,281.646 384.419,281.736 353.236 L 281.836 318.555 325.586 318.339 C 373.529 318.102,370.648 318.248,376.563 315.757 C 385.681 311.917,391.859 305.248,395.627 295.179 L 396.673 292.383 396.779 182.813 C 396.837 122.549,396.837 65.332,396.778 55.664 C 396.719 45.996,396.606 71.396,396.526 112.109 M2.344 50.147 C 2.344 50.586,2.675 50.772,3.418 50.750 C 4.030 50.733,4.240 50.626,3.906 50.503 C 3.584 50.383,3.101 50.112,2.832 49.900 C 2.483 49.624,2.344 49.695,2.344 50.147 M8.150 52.164 C 8.873 52.478,9.664 52.727,9.908 52.719 C 10.152 52.711,9.760 52.447,9.037 52.133 C 8.314 51.819,7.523 51.569,7.279 51.578 C 7.035 51.586,7.427 51.850,8.150 52.164 M15.234 54.492 C 17.018 55.179,17.720 55.169,16.211 54.478 C 15.566 54.183,14.775 53.947,14.453 53.954 C 14.131 53.960,14.482 54.203,15.234 54.492 M22.266 56.836 C 24.049 57.523,24.751 57.513,23.242 56.822 C 22.598 56.527,21.807 56.291,21.484 56.297 C 21.162 56.304,21.514 56.546,22.266 56.836 M26.387 58.175 C 26.591 58.375,27.285 58.647,27.930 58.781 C 29.097 59.022,29.097 59.021,27.787 58.418 C 26.288 57.727,25.851 57.652,26.387 58.175 M30.416 59.586 C 31.139 59.899,31.930 60.149,32.174 60.141 C 32.418 60.133,32.026 59.869,31.303 59.555 C 30.580 59.241,29.789 58.991,29.545 59.000 C 29.301 59.008,29.693 59.272,30.416 59.586 M33.203 60.481 C 34.007 61.008,38.726 62.576,38.920 62.382 C 39.055 62.247,37.845 61.803,33.398 60.352 C 32.795 60.155,32.751 60.185,33.203 60.481 M40.234 63.086 C 40.771 63.393,41.475 63.644,41.797 63.643 C 42.119 63.642,41.791 63.385,41.068 63.071 C 39.405 62.348,38.959 62.357,40.234 63.086 M43.697 64.273 C 44.420 64.587,45.123 64.838,45.260 64.830 C 45.768 64.802,43.532 63.700,42.969 63.701 C 42.646 63.702,42.974 63.959,43.697 64.273 M48.412 66.031 C 50.010 66.659,51.382 67.108,51.462 67.028 C 51.637 66.852,46.434 64.834,45.890 64.867 C 45.680 64.879,46.815 65.403,48.412 66.031 M54.662 68.375 C 56.260 69.003,57.632 69.451,57.712 69.371 C 57.887 69.196,52.684 67.178,52.140 67.210 C 51.930 67.223,53.065 67.747,54.662 68.375 M58.594 69.887 C 58.916 70.069,59.619 70.334,60.156 70.477 L 61.133 70.736 60.156 70.147 C 59.619 69.824,58.916 69.558,58.594 69.557 C 58.073 69.555,58.073 69.592,58.594 69.887 M62.695 71.484 C 62.828 71.699,63.153 71.875,63.417 71.875 C 63.681 71.875,64.565 72.215,65.381 72.631 C 66.433 73.168,67.110 73.288,67.709 73.047 L 68.555 72.706 67.680 72.681 C 67.199 72.667,65.881 72.305,64.750 71.875 C 62.367 70.970,62.378 70.972,62.695 71.484 M129.688 148.617 C 117.755 152.015,113.819 167.099,122.531 176.043 C 133.534 187.340,152.830 177.660,150.409 162.057 C 148.879 152.198,139.188 145.912,129.688 148.617 M194.756 148.692 C 185.319 151.588,180.501 162.733,184.867 171.566 C 190.689 183.348,206.442 184.266,213.498 173.236 C 221.603 160.565,209.160 144.271,194.756 148.692 M259.872 148.798 C 246.206 153.456,244.661 172.635,257.432 179.107 C 273.343 187.169,288.815 167.753,277.600 153.798 C 273.727 148.979,265.856 146.758,259.872 148.798 M137.077 148.869 C 151.461 151.285,154.841 170.905,142.137 178.234 C 134.586 182.591,124.520 179.959,120.503 172.577 C 113.866 160.385,123.510 146.591,137.077 148.869 M202.459 148.846 C 221.213 152.313,218.868 180.028,199.805 180.218 C 178.873 180.426,178.520 149.667,199.440 148.483 C 199.884 148.458,201.242 148.621,202.459 148.846 M267.937 148.878 C 279.136 150.796,284.501 163.656,278.175 173.419 C 270.936 184.591,253.167 181.727,249.831 168.851 C 246.780 157.076,256.056 146.843,267.937 148.878 M66.016 255.792 C 66.016 255.970,64.130 257.333,61.825 258.820 C 59.521 260.307,54.731 263.406,51.181 265.707 C 47.631 268.007,43.584 270.610,42.188 271.490 C 40.791 272.370,38.372 273.915,36.813 274.924 C 33.706 276.933,23.106 283.748,18.164 286.913 C 16.445 288.013,13.933 289.606,12.580 290.453 C 11.228 291.300,8.961 292.739,7.542 293.652 C 6.123 294.565,4.713 295.313,4.408 295.313 C 3.757 295.313,3.934 296.091,5.265 299.068 C 8.831 307.045,16.104 313.604,24.609 316.512 C 29.577 318.211,27.268 318.164,105.859 318.164 L 180.664 318.164 182.438 317.280 C 184.646 316.181,186.904 314.019,188.018 311.939 C 188.862 310.361,188.867 310.217,188.867 287.500 L 188.867 264.648 187.713 262.565 C 186.453 260.290,185.134 259.018,182.663 257.696 L 181.055 256.836 124.805 256.641 C 80.812 256.488,68.369 256.339,67.701 255.957 C 66.718 255.394,66.016 255.326,66.016 255.792 M124.023 257.418 C 186.957 257.649,181.961 257.389,185.171 260.599 C 188.336 263.764,188.345 263.850,188.206 288.477 L 188.086 309.570 187.003 311.775 C 186.176 313.458,185.403 314.336,183.733 315.486 L 181.546 316.992 105.128 316.992 C 31.218 316.992,28.640 316.968,26.563 316.254 C 16.548 312.813,10.863 308.043,6.350 299.293 C 4.770 296.231,4.770 295.882,6.348 295.067 C 7.046 294.706,8.057 294.104,8.594 293.729 C 9.131 293.355,12.822 290.986,16.797 288.464 C 24.553 283.544,26.112 282.547,31.250 279.224 C 33.076 278.042,36.855 275.615,39.648 273.830 C 42.441 272.045,46.660 269.324,49.023 267.785 C 51.387 266.245,54.275 264.382,55.441 263.645 C 56.607 262.908,59.508 261.027,61.886 259.465 C 65.181 257.301,66.397 256.695,66.992 256.918 C 67.422 257.080,93.086 257.304,124.023 257.418 " stroke="none" fill="#e27c80" fill-rule="evenodd"></path></g></svg>